<?xml version="1.0" standalone="no"?><!DOCTYPE svg PUBLIC "-//W3C//DTD SVG 1.1//EN" "http://www.w3.org/Graphics/SVG/1.1/DTD/svg11.dtd"><svg height="1024" node-id="1" sillyvg="true" template-height="1024" template-width="1025" version="1.1" viewBox="0 0 1025 1024" width="1025" xmlns="http://www.w3.org/2000/svg" xmlns:xlink="http://www.w3.org/1999/xlink"><defs node-id="25"><filter height="1.121" id="filter-2" node-id="6" width="1.087" x="-0.043" y="-0.061"><feOffset color-interpolation-filters="linearRGB" dx="0" dy="0" in="SourceAlpha" result="shadowOffsetOuter1"></feOffset><feGaussianBlur color-interpolation-filters="linearRGB" in="shadowOffsetOuter1" result="shadowBlurOuter1" stdDeviation="13 13"></feGaussianBlur><feColorMatrix color-interpolation-filters="linearRGB" in="shadowBlurOuter1" result="result3" type="matrix" values="0 0 0 0 0 0 0 0 0 0 0 0 0 0 0 0 0 0 0.0841892483 0"></feColorMatrix></filter></defs><path d="M 1.00 0.00 L 1025.00 0.00 L 1025.00 1024.00 L 1.00 1024.00 Z" fill="#171a1d" fill-rule="evenodd" node-id="37" stroke="none" target-height="1024" target-width="1024" target-x="1" target-y="0"></path><g node-id="50"><g node-id="51"><g node-id="56"><path d="M 68.27 190.00 L 957.73 190.00 L 959.16 190.20 L 960.39 190.72 L 961.46 191.54 L 962.28 192.61 L 962.80 193.84 L 963.00 195.27 L 963.00 828.09 L 962.80 829.52 L 962.28 830.75 L 961.46 831.81 L 960.39 832.64 L 959.16 833.16 L 957.73 833.36 L 68.27 833.36 L 66.84 833.16 L 65.61 832.64 L 64.54 831.81 L 63.72 830.75 L 63.20 829.52 L 63.00 828.09 L 63.00 195.27 L 63.20 193.84 L 63.72 192.61 L 64.54 191.54 L 65.61 190.72 L 66.84 190.20 L 68.27 190.00 Z" fill="#000000" fill-opacity="0.05008176" fill-rule="evenodd" filter="url(#filter-2)" group-id="1,2,7" node-id="43" stroke="none" target-height="643.3594" target-width="900" target-x="63" target-y="190"></path></g><path d="M 68.27 190.00 L 957.73 190.00 L 959.16 190.20 L 960.39 190.72 L 961.46 191.54 L 962.28 192.61 L 962.80 193.84 L 963.00 195.27 L 963.00 828.09 L 962.80 829.52 L 962.28 830.75 L 961.46 831.81 L 960.39 832.64 L 959.16 833.16 L 957.73 833.36 L 68.27 833.36 L 66.84 833.16 L 65.61 832.64 L 64.54 831.81 L 63.72 830.75 L 63.20 829.52 L 63.00 828.09 L 63.00 195.27 L 63.20 193.84 L 63.72 192.61 L 64.54 191.54 L 65.61 190.72 L 66.84 190.20 L 68.27 190.00 Z" fill="#3fa5ff" fill-opacity="0.05008176" fill-rule="evenodd" group-id="1,2,8" node-id="48" stroke="none" target-height="643.3594" target-width="900" target-x="63" target-y="190"></path></g><g node-id="52"><path d="M 405.95 564.15 L 430.37 466.49 L 511.79 436.05 L 429.93 406.61 L 404.37 309.25 L 379.82 406.90 L 298.39 437.34 L 380.25 466.78 L 405.95 564.15 Z M 598.78 489.54 L 601.48 428.22 L 646.39 400.07 L 593.89 392.49 L 566.72 337.54 L 564.03 398.85 L 519.11 427.00 L 571.62 434.46 L 598.78 489.54 L 598.78 489.54 Z M 720.16 660.65 L 646.35 586.84 L 560.18 673.00 L 634.14 746.96 L 634.14 746.96 L 636.91 749.35 L 639.84 751.28 L 642.95 752.77 L 646.23 753.85 L 649.56 754.49 L 652.95 754.71 L 656.35 754.49 L 659.68 753.85 L 662.96 752.77 L 666.07 751.28 L 669.00 749.35 L 671.77 746.96 L 720.02 698.70 L 720.02 698.70 L 722.46 695.93 L 724.43 692.99 L 725.97 689.86 L 727.08 686.55 L 727.76 683.19 L 727.99 679.76 L 727.80 676.33 L 727.16 672.96 L 726.09 669.65 L 724.59 666.50 L 722.65 663.53 L 720.24 660.73 L 720.16 660.65 L 720.16 660.65 Z M 556.16 497.23 L 556.16 497.23 L 553.38 494.83 L 550.44 492.90 L 547.32 491.41 L 544.03 490.32 L 540.69 489.68 L 537.28 489.47 L 533.87 489.68 L 530.53 490.32 L 527.24 491.41 L 524.12 492.90 L 521.17 494.83 L 518.40 497.23 L 470.29 545.48 L 470.29 545.48 L 467.88 548.21 L 465.94 551.10 L 464.42 554.18 L 463.32 557.43 L 462.66 560.73 L 462.42 564.11 L 462.61 567.49 L 463.23 570.80 L 464.29 574.06 L 465.76 577.16 L 467.66 580.08 L 470.03 582.85 L 470.29 583.10 L 543.10 656.05 L 629.26 569.89 L 556.16 497.23 Z M 541.80 628.77 L 480.77 567.74 L 541.80 507.14 L 602.26 567.74 L 541.80 628.77 Z" fill="#0c73ff" fill-rule="nonzero" group-id="1,3" id="形状" node-id="17" stroke="none" target-height="445.45822" target-width="429.60168" target-x="298.39172" target-y="309.24686"></path><g node-id="58"><path d="M 556.16 497.23 L 556.16 497.23 L 553.38 494.83 L 550.44 492.90 L 547.32 491.41 L 544.03 490.32 L 540.69 489.68 L 537.28 489.47 L 533.87 489.68 L 530.53 490.32 L 527.24 491.41 L 524.12 492.90 L 521.17 494.83 L 518.40 497.23 L 470.29 545.48 L 470.29 545.48 L 467.88 548.21 L 465.94 551.10 L 464.42 554.18 L 463.32 557.43 L 462.66 560.73 L 462.42 564.11 L 462.61 567.49 L 463.23 570.80 L 464.29 574.06 L 465.76 577.16 L 467.66 580.08 L 470.03 582.85 L 470.29 583.10 L 543.10 656.05 L 629.26 569.89 L 556.16 497.23 Z" fill="#599fff" fill-opacity="0.2" fill-rule="nonzero" group-id="1,3,9" id="路径备份-2" node-id="18" stroke="none" target-height="166.58893" target-width="166.8389" target-x="462.41983" target-y="489.46515"></path></g><g node-id="59"><path d="M 413.71 569.32 L 406.67 611.97 L 372.78 627.91 L 408.82 637.67 L 423.18 678.60 L 430.37 635.81 L 464.26 620.01 L 428.07 610.10 L 413.71 569.32 Z" fill="#3fa5ff" fill-opacity="0.4" fill-rule="nonzero" group-id="1,3,10" id="路径备份" node-id="19" stroke="none" target-height="109.28375" target-width="91.476685" target-x="372.77936" target-y="569.3164"></path></g><path d="M 656.22 440.00 L 651.59 468.10 L 629.26 478.60 L 653.01 485.04 L 662.47 512.00 L 667.20 483.81 L 689.53 473.40 L 665.68 466.87 L 656.22 440.00 Z" fill="#3fa5ff" fill-opacity="0.4" fill-rule="nonzero" group-id="1,3,11" id="路径备份-3" node-id="20" stroke="none" target-height="72" target-width="60.268127" target-x="629.2587" target-y="440"></path></g><g node-id="53"><path d="M 132.43 235.29 L 132.21 237.70 L 131.61 239.91 L 130.63 241.95 L 129.32 243.80 L 127.75 245.37 L 125.90 246.68 L 123.86 247.65 L 121.66 248.25 L 119.25 248.48 L 116.84 248.25 L 114.64 247.65 L 112.60 246.68 L 110.75 245.37 L 109.18 243.80 L 107.87 241.95 L 106.89 239.91 L 106.29 237.70 L 106.07 235.29 L 106.29 232.89 L 106.89 230.68 L 107.87 228.64 L 109.18 226.79 L 110.75 225.22 L 112.60 223.91 L 114.64 222.94 L 116.84 222.33 L 119.25 222.11 L 121.66 222.33 L 123.86 222.94 L 125.90 223.91 L 127.75 225.22 L 129.32 226.79 L 130.63 228.64 L 131.61 230.68 L 132.21 232.89 L 132.43 235.29 Z" fill="#3fa5ff" fill-opacity="0.5" fill-rule="evenodd" group-id="1,4" id="椭圆形" node-id="21" stroke="none" target-height="26.367188" target-width="26.367188" target-x="106.06641" target-y="222.11078"></path></g><g node-id="54"><path d="M 176.38 235.29 L 176.15 237.70 L 175.55 239.91 L 174.58 241.95 L 173.27 243.80 L 171.70 245.37 L 169.85 246.68 L 167.81 247.65 L 165.60 248.25 L 163.20 248.48 L 160.79 248.25 L 158.58 247.65 L 156.54 246.68 L 154.69 245.37 L 153.12 243.80 L 151.81 241.95 L 150.84 239.91 L 150.24 237.70 L 150.01 235.29 L 150.24 232.89 L 150.84 230.68 L 151.81 228.64 L 153.12 226.79 L 154.69 225.22 L 156.54 223.91 L 158.58 222.94 L 160.79 222.33 L 163.20 222.11 L 165.60 222.33 L 167.81 222.94 L 169.85 223.91 L 171.70 225.22 L 173.27 226.79 L 174.58 228.64 L 175.55 230.68 L 176.15 232.89 L 176.38 235.29 Z" fill="#3fa5ff" fill-opacity="0.5" fill-rule="evenodd" group-id="1,5" id="椭圆形备份" node-id="22" stroke="none" target-height="26.367188" target-width="26.367188" target-x="150.01172" target-y="222.11078"></path></g><path d="M 220.32 235.29 L 220.10 237.70 L 219.50 239.91 L 218.52 241.95 L 217.21 243.80 L 215.64 245.37 L 213.79 246.68 L 211.75 247.65 L 209.55 248.25 L 207.14 248.48 L 204.73 248.25 L 202.53 247.65 L 200.49 246.68 L 198.64 245.37 L 197.07 243.80 L 195.76 241.95 L 194.78 239.91 L 194.18 237.70 L 193.96 235.29 L 194.18 232.89 L 194.78 230.68 L 195.76 228.64 L 197.07 226.79 L 198.64 225.22 L 200.49 223.91 L 202.53 222.94 L 204.73 222.33 L 207.14 222.11 L 209.55 222.33 L 211.75 222.94 L 213.79 223.91 L 215.64 225.22 L 217.21 226.79 L 218.52 228.64 L 219.50 230.68 L 220.10 232.89 L 220.32 235.29 Z" fill="#3fa5ff" fill-opacity="0.5" fill-rule="evenodd" group-id="1,6" id="椭圆形备份-2" node-id="23" stroke="none" target-height="26.367188" target-width="26.367188" target-x="193.95703" target-y="222.11078"></path></g></svg>