<?xml version="1.0" standalone="no"?><!DOCTYPE svg PUBLIC "-//W3C//DTD SVG 1.1//EN" "http://www.w3.org/Graphics/SVG/1.1/DTD/svg11.dtd"><svg height="1024" node-id="1" sillyvg="true" template-height="1024" template-width="1024" version="1.1" viewBox="0 0 1024 1024" width="1024" xmlns="http://www.w3.org/2000/svg" xmlns:xlink="http://www.w3.org/1999/xlink"><defs node-id="25"><filter height="1.121" id="filter-2" node-id="6" width="1.087" x="-0.043" y="-0.061"><feOffset color-interpolation-filters="linearRGB" dx="0" dy="0" in="SourceAlpha" result="shadowOffsetOuter1"></feOffset><feGaussianBlur color-interpolation-filters="linearRGB" in="shadowOffsetOuter1" result="shadowBlurOuter1" stdDeviation="13 13"></feGaussianBlur><feColorMatrix color-interpolation-filters="linearRGB" in="shadowBlurOuter1" result="result3" type="matrix" values="0 0 0 0 0 0 0 0 0 0 0 0 0 0 0 0 0 0 0.0841892483 0"></feColorMatrix></filter></defs><path d="M 0.00 0.00 L 1024.00 0.00 L 1024.00 1024.00 L 0.00 1024.00 Z" fill="#171a1d" fill-rule="evenodd" node-id="37" stroke="none" target-height="1024" target-width="1024" target-x="0" target-y="0"></path><g node-id="50"><g node-id="52"><g node-id="56"><path d="M 67.27 190.00 L 956.73 190.00 L 958.16 190.20 L 959.39 190.72 L 960.46 191.54 L 961.28 192.61 L 961.80 193.84 L 962.00 195.27 L 962.00 828.09 L 961.80 829.52 L 961.28 830.75 L 960.46 831.81 L 959.39 832.64 L 958.16 833.16 L 956.73 833.36 L 67.27 833.36 L 65.84 833.16 L 64.61 832.64 L 63.54 831.81 L 62.72 830.75 L 62.20 829.52 L 62.00 828.09 L 62.00 195.27 L 62.20 193.84 L 62.72 192.61 L 63.54 191.54 L 64.61 190.72 L 65.84 190.20 L 67.27 190.00 Z" fill="#000000" fill-opacity="0.05008176" fill-rule="evenodd" filter="url(#filter-2)" group-id="1,3,7" node-id="43" stroke="none" target-height="643.3594" target-width="900" target-x="62" target-y="190"></path></g><path d="M 67.27 190.00 L 956.73 190.00 L 958.16 190.20 L 959.39 190.72 L 960.46 191.54 L 961.28 192.61 L 961.80 193.84 L 962.00 195.27 L 962.00 828.09 L 961.80 829.52 L 961.28 830.75 L 960.46 831.81 L 959.39 832.64 L 958.16 833.16 L 956.73 833.36 L 67.27 833.36 L 65.84 833.16 L 64.61 832.64 L 63.54 831.81 L 62.72 830.75 L 62.20 829.52 L 62.00 828.09 L 62.00 195.27 L 62.20 193.84 L 62.72 192.61 L 63.54 191.54 L 64.61 190.72 L 65.84 190.20 L 67.27 190.00 Z" fill="#0c73ff" fill-opacity="0.05008176" fill-rule="evenodd" group-id="1,3,8" node-id="48" stroke="none" target-height="643.3594" target-width="900" target-x="62" target-y="190"></path></g><g node-id="53"><path d="M 131.43 235.29 L 131.21 237.70 L 130.61 239.91 L 129.63 241.95 L 128.32 243.80 L 126.75 245.37 L 124.90 246.68 L 122.86 247.65 L 120.66 248.25 L 118.25 248.48 L 115.84 248.25 L 113.64 247.65 L 111.60 246.68 L 109.75 245.37 L 108.18 243.80 L 106.87 241.95 L 105.89 239.91 L 105.29 237.70 L 105.07 235.29 L 105.29 232.89 L 105.89 230.68 L 106.87 228.64 L 108.18 226.79 L 109.75 225.22 L 111.60 223.91 L 113.64 222.94 L 115.84 222.33 L 118.25 222.11 L 120.66 222.33 L 122.86 222.94 L 124.90 223.91 L 126.75 225.22 L 128.32 226.79 L 129.63 228.64 L 130.61 230.68 L 131.21 232.89 L 131.43 235.29 Z" fill="#3fa5ff" fill-opacity="0.5" fill-rule="evenodd" group-id="1,4" id="椭圆形" node-id="16" stroke="none" target-height="26.367188" target-width="26.367188" target-x="105.06641" target-y="222.11078"></path></g><g node-id="54"><path d="M 175.38 235.29 L 175.15 237.70 L 174.55 239.91 L 173.58 241.95 L 172.27 243.80 L 170.70 245.37 L 168.85 246.68 L 166.81 247.65 L 164.60 248.25 L 162.20 248.48 L 159.79 248.25 L 157.58 247.65 L 155.54 246.68 L 153.69 245.37 L 152.12 243.80 L 150.81 241.95 L 149.84 239.91 L 149.24 237.70 L 149.01 235.29 L 149.24 232.89 L 149.84 230.68 L 150.81 228.64 L 152.12 226.79 L 153.69 225.22 L 155.54 223.91 L 157.58 222.94 L 159.79 222.33 L 162.20 222.11 L 164.60 222.33 L 166.81 222.94 L 168.85 223.91 L 170.70 225.22 L 172.27 226.79 L 173.58 228.64 L 174.55 230.68 L 175.15 232.89 L 175.38 235.29 Z" fill="#3fa5ff" fill-opacity="0.5" fill-rule="evenodd" group-id="1,5" id="椭圆形备份" node-id="17" stroke="none" target-height="26.367188" target-width="26.367188" target-x="149.01172" target-y="222.11078"></path></g><path d="M 219.32 235.29 L 219.10 237.70 L 218.50 239.91 L 217.52 241.95 L 216.21 243.80 L 214.64 245.37 L 212.79 246.68 L 210.75 247.65 L 208.55 248.25 L 206.14 248.48 L 203.73 248.25 L 201.53 247.65 L 199.49 246.68 L 197.64 245.37 L 196.07 243.80 L 194.76 241.95 L 193.78 239.91 L 193.18 237.70 L 192.96 235.29 L 193.18 232.89 L 193.78 230.68 L 194.76 228.64 L 196.07 226.79 L 197.64 225.22 L 199.49 223.91 L 201.53 222.94 L 203.73 222.33 L 206.14 222.11 L 208.55 222.33 L 210.75 222.94 L 212.79 223.91 L 214.64 225.22 L 216.21 226.79 L 217.52 228.64 L 218.50 230.68 L 219.10 232.89 L 219.32 235.29 Z" fill="#3fa5ff" fill-opacity="0.5" fill-rule="evenodd" group-id="1,6" id="椭圆形备份-2" node-id="18" stroke="none" target-height="26.367188" target-width="26.367188" target-x="192.95703" target-y="222.11078"></path></g><g node-id="51"><path d="M 312.91 619.74 L 311.25 718.11 L 311.81 719.53 L 312.57 720.94 L 313.96 722.92 L 315.74 724.87 L 318.37 727.00 L 320.34 728.24 L 322.77 729.41 L 325.73 730.49 L 328.76 731.26 L 332.39 731.81 L 336.72 732.08 L 645.24 737.28 L 395.77 564.55 L 312.91 619.74 Z" fill="#0091ff" fill-rule="nonzero" group-id="2" id="路径" node-id="20" stroke="none" target-height="172.73022" target-width="333.99237" target-x="311.24695" target-y="564.5521"></path><path d="M 616.90 579.22 L 538.45 482.10 L 538.45 482.10 L 533.66 476.50 L 529.20 470.63 L 427.19 543.64 L 697.49 730.08 L 698.47 730.72 L 699.47 731.20 L 700.71 731.56 L 701.97 731.56 L 703.18 731.02 L 703.81 730.38 L 704.38 729.27 L 704.85 727.52 L 704.85 498.08 L 639.31 579.22 L 639.31 579.22 L 637.58 581.12 L 635.67 582.61 L 633.54 583.73 L 631.24 584.47 L 628.91 584.80 L 626.50 584.74 L 624.15 584.26 L 621.89 583.37 L 619.70 582.02 L 618.20 580.72 L 616.90 579.22 L 616.90 579.22 Z" fill="#3fa5ff" fill-rule="nonzero" group-id="2" id="路径" node-id="21" stroke="none" target-height="260.9272" target-width="277.657" target-x="427.19016" target-y="470.63495"></path><path d="M 547.71 315.31 L 501.01 316.00 L 337.04 318.42 L 337.04 318.42 L 333.39 318.67 L 329.96 319.37 L 326.70 320.51 L 323.62 322.06 L 320.82 323.95 L 318.26 326.20 L 316.02 328.75 L 314.12 331.56 L 312.57 334.64 L 311.44 337.89 L 310.74 341.33 L 310.49 344.97 L 310.49 572.97 L 501.01 440.19 L 510.95 433.27 L 510.95 433.27 L 509.11 425.97 L 507.79 418.61 L 506.99 411.18 L 506.71 403.66 L 506.71 403.67 L 507.03 395.14 L 507.94 386.79 L 509.45 378.59 L 511.56 370.52 L 514.24 362.61 L 517.45 354.97 L 521.21 347.58 L 525.52 340.43 L 530.32 333.61 L 535.61 327.16 L 541.40 321.07 L 547.70 315.32 L 547.71 315.31 Z" fill="#0c73ff" fill-rule="nonzero" group-id="2" id="路径" node-id="22" stroke="none" target-height="257.65536" target-width="237.2248" target-x="310.48615" target-y="315.31027"></path><path d="M 628.10 286.00 L 628.10 286.00 L 620.73 286.19 L 613.46 286.80 L 606.27 287.84 L 599.16 289.30 L 592.14 291.18 L 585.28 293.46 L 578.57 296.13 L 571.98 299.21 L 565.60 302.67 L 559.43 306.50 L 553.47 310.71 L 547.71 315.31 L 547.71 315.31 L 541.40 321.06 L 535.62 327.15 L 530.33 333.60 L 525.52 340.42 L 521.22 347.57 L 517.46 354.96 L 514.24 362.60 L 511.56 370.51 L 509.46 378.58 L 507.94 386.78 L 507.03 395.13 L 506.71 403.66 L 506.71 403.66 L 506.99 411.18 L 507.79 418.61 L 509.11 425.97 L 510.95 433.27 L 510.95 433.27 L 513.09 439.91 L 515.60 446.40 L 518.48 452.73 L 521.70 458.89 L 525.28 464.86 L 529.20 470.64 L 529.20 470.64 L 533.66 476.50 L 538.45 482.10 L 616.90 579.22 L 616.90 579.22 L 618.62 581.12 L 620.54 582.61 L 622.67 583.73 L 624.96 584.47 L 627.29 584.80 L 629.70 584.74 L 632.06 584.26 L 634.32 583.37 L 636.50 582.02 L 638.01 580.72 L 639.31 579.22 L 704.85 498.08 L 717.75 482.10 L 722.30 476.86 L 726.57 471.38 L 730.57 465.66 L 734.28 459.69 L 737.63 453.54 L 740.60 447.14 L 743.20 440.48 L 745.42 433.54 L 747.15 426.53 L 748.42 419.23 L 749.21 411.61 L 749.50 403.66 L 749.20 395.47 L 748.38 387.52 L 747.04 379.79 L 745.17 372.25 L 742.80 364.82 L 739.97 357.67 L 736.70 350.77 L 732.97 344.10 L 728.80 337.69 L 724.26 331.60 L 719.34 325.81 L 714.01 320.32 L 708.36 315.18 L 702.39 310.42 L 696.09 306.02 L 689.46 301.98 L 682.60 298.38 L 675.49 295.21 L 668.11 292.48 L 660.44 290.18 L 652.68 288.38 L 644.71 287.08 L 636.53 286.28 L 628.10 286.00 L 628.10 286.00 Z M 628.10 463.43 L 623.05 463.21 L 618.16 462.60 L 613.41 461.62 L 608.78 460.26 L 604.26 458.54 L 599.95 456.51 L 595.82 454.18 L 591.88 451.53 L 586.96 447.57 L 582.50 443.21 L 578.48 438.42 L 574.97 433.25 L 572.03 427.81 L 569.65 422.07 L 568.28 417.62 L 567.29 413.07 L 566.69 408.43 L 566.47 403.66 L 566.47 403.68 L 566.67 398.84 L 567.26 394.04 L 568.42 388.67 L 570.01 383.56 L 572.04 378.69 L 574.51 374.04 L 577.39 369.61 L 580.60 365.50 L 584.17 361.69 L 588.09 358.16 L 592.30 354.98 L 596.75 352.18 L 601.47 349.75 L 606.47 347.69 L 611.60 346.07 L 616.90 344.90 L 622.39 344.18 L 628.10 343.92 L 628.10 343.92 L 633.07 344.13 L 638.00 344.74 L 643.42 345.91 L 648.60 347.50 L 653.56 349.52 L 658.33 351.97 L 662.90 354.82 L 667.14 357.99 L 671.09 361.48 L 674.75 365.31 L 678.09 369.43 L 681.03 373.76 L 683.57 378.31 L 685.73 383.10 L 687.45 388.05 L 688.69 393.12 L 689.45 398.32 L 689.73 403.68 L 689.51 408.73 L 688.90 413.59 L 687.91 418.28 L 686.55 422.80 L 684.81 427.23 L 682.76 431.43 L 680.40 435.43 L 677.72 439.24 L 673.70 443.97 L 669.24 448.25 L 664.32 452.09 L 659.03 455.42 L 653.41 458.20 L 647.42 460.46 L 642.80 461.74 L 638.05 462.67 L 633.16 463.24 L 628.10 463.44 L 628.10 463.43 Z" fill="#035def" fill-rule="nonzero" group-id="2" id="形状" node-id="23" stroke="none" target-height="298.80072" target-width="242.7922" target-x="506.70584" target-y="286"></path></g></svg>